# xmcd
#
# Track frame offsets:
#	182
#	17680
#	34032
#	49230
#	64397
#	76122
#	89077
#	99555
#	110840
#	119627
#	135535
#	151752
#	166152
#	180255
#	191242
#	202510
#	214970
#	235637
#	247642
#	256107
#
# Disc length: 3602 seconds
#
# Revision: 2
# Processed by: cddbd v1.4PL0 Copyright (c) Steve Scherf et al.
# Submitted via: audiograbber 1.80.04
#
DISCID=030e1014
DTITLE=Billie Jo Spears - The Greatest Hits
DYEAR=1989
DGENRE=Country
TTITLE0=For The Good Times
TTITLE1=Fire And Rain
TTITLE2=Crystal Chandeliers
TTITLE3=It's A Heartache
TTITLE4=Silver Threads And Golden Needles
TTITLE5='57 Chevrolet
TTITLE6=I'm Gonna Be A Country Girl Again
TTITLE7=Here You Come Again
TTITLE8=Blue Blue Day
TTITLE9=Blanket On The Ground
TTITLE10=Queen Of The Silver Dollar
TTITLE11=Cryin' Time
TTITLE12=I'll Never Love Like This Again
TTITLE13=All I Have To Do Is Dream
TTITLE14=Tennessee  Waltz
TTITLE15=What I've Got In Mind
TTITLE16=Just The Way You Are
TTITLE17=This Ole House
TTITLE18=Rocky Top
TTITLE19=Blue Bayou
EXTD=
EXTT0=
EXTT1=
EXTT2=
EXTT3=
EXTT4=
EXTT5=
EXTT6=
EXTT7=
EXTT8=
EXTT9=
EXTT10=
EXTT11=
EXTT12=
EXTT13=
EXTT14=
EXTT15=
EXTT16=
EXTT17=
EXTT18=
EXTT19=
PLAYORDER=
